<svg width="26" height="24" viewBox="0 0 26 24" fill="none" xmlns="http://www.w3.org/2000/svg">
<path d="M9.45085 17.3206C13.6594 17.0869 17 13.6003 17 9.33334C17 4.91507 13.4183 1.33334 9 1.33334C4.58172 1.33334 1 4.91507 1 9.33334C1 10.9076 1.45458 12.3756 2.23985 13.6133L1.67448 15.3094L1.67358 15.3119C1.45703 15.9615 1.34871 16.2865 1.42585 16.5028C1.49306 16.6913 1.64225 16.8398 1.83073 16.9071C2.0463 16.9839 2.36899 16.8764 3.01425 16.6613L3.02344 16.6585L4.72005 16.0931C5.95774 16.8784 7.4258 17.3331 9.00008 17.3331C9.15135 17.3331 9.30165 17.3289 9.45085 17.3206ZM9.45085 17.3206C9.45096 17.3209 9.45074 17.3203 9.45085 17.3206ZM9.45085 17.3206C10.5454 20.4345 13.5121 22.6669 17.0002 22.6669C18.5745 22.6669 20.0422 22.2118 21.2798 21.4264L22.976 21.9918L22.9794 21.9925C23.6289 22.209 23.9544 22.3175 24.1707 22.2404C24.3592 22.1732 24.5065 22.0246 24.5737 21.8361C24.6509 21.6195 24.5429 21.2942 24.3258 20.6428L23.7604 18.9466L23.9498 18.6328C24.6184 17.4639 24.9993 16.1098 24.9993 14.6667C24.9993 10.2484 21.4183 6.66668 17 6.66668L16.7005 6.67219L16.5495 6.67958" stroke="white" stroke-width="2" stroke-linecap="round" stroke-linejoin="round"/>
</svg>
